<svg width="440" height="332" viewBox="0 0 440 332" fill="none" xmlns="http://www.w3.org/2000/svg">
<path d="M344 19L400.292 46.75V102.25L344 130L287.708 102.25V46.75L344 19Z" fill="#FEB51E"/>
<path d="M285 110L341.292 137.75V193.25L285 221L228.708 193.25V137.75L285 110Z" fill="#FEB51E"/>
<path d="M165 110L221.292 137.75V193.25L165 221L108.708 193.25V137.75L165 110Z" fill="#FEB51E"/>
<path d="M225 200L281.292 227.75V283.25L225 311L168.708 283.25V227.75L225 200Z" fill="#FEB51E"/>
<path d="M105 19L161.292 46.75V102.25L105 130L48.7083 102.25V46.75L105 19Z" fill="#FEB51E"/>
<path d="M225 19L281.292 46.75V102.25L225 130L168.708 102.25V46.75L225 19Z" fill="#FEB51E"/>
<path d="M94.8977 55.2727L104.741 86.2159H105.119L114.983 55.2727H124.528L110.489 96H99.392L85.3324 55.2727H94.8977Z" fill="#090940"/>
<path d="M353.38 62.7273V69.6591H333.343V62.7273H353.38ZM337.892 54.7557H347.12V85.7756C347.12 86.6276 347.25 87.2919 347.51 87.7685C347.77 88.2306 348.131 88.5555 348.593 88.7433C349.07 88.931 349.618 89.0249 350.239 89.0249C350.673 89.0249 351.106 88.9888 351.539 88.9165C351.972 88.8299 352.304 88.7649 352.536 88.7216L353.987 95.5884C353.525 95.7328 352.875 95.8989 352.037 96.0866C351.2 96.2888 350.182 96.4116 348.983 96.4549C346.759 96.5415 344.809 96.2455 343.134 95.5668C341.473 94.888 340.181 93.8338 339.257 92.4041C338.333 90.9744 337.878 89.1693 337.892 86.9886V54.7557Z" fill="#090940"/>
<path d="M147.54 186V145.273H156.151V162.077H173.631V145.273H182.222V186H173.631V169.176H156.151V186H147.54Z" fill="#090940"/>
<path d="M244.966 255.636C244.966 260.078 244.124 263.856 242.44 266.972C240.77 270.087 238.49 272.467 235.599 274.111C232.723 275.741 229.488 276.557 225.895 276.557C222.276 276.557 219.027 275.735 216.151 274.091C213.274 272.447 211 270.067 209.33 266.952C207.659 263.836 206.824 260.064 206.824 255.636C206.824 251.195 207.659 247.417 209.33 244.301C211 241.186 213.274 238.812 216.151 237.182C219.027 235.538 222.276 234.716 225.895 234.716C229.488 234.716 232.723 235.538 235.599 237.182C238.49 238.812 240.77 241.186 242.44 244.301C244.124 247.417 244.966 251.195 244.966 255.636ZM236.236 255.636C236.236 252.759 235.805 250.333 234.943 248.358C234.095 246.383 232.895 244.884 231.344 243.864C229.793 242.843 227.976 242.332 225.895 242.332C223.813 242.332 221.997 242.843 220.446 243.864C218.895 244.884 217.688 246.383 216.827 248.358C215.978 250.333 215.554 252.759 215.554 255.636C215.554 258.513 215.978 260.939 216.827 262.915C217.688 264.89 218.895 266.388 220.446 267.409C221.997 268.43 223.813 268.94 225.895 268.94C227.976 268.94 229.793 268.43 231.344 267.409C232.895 266.388 234.095 264.89 234.943 262.915C235.805 260.939 236.236 258.513 236.236 255.636Z" fill="#090940"/>
<path d="M267.54 186V145.273H283.847C286.843 145.273 289.342 145.717 291.344 146.605C293.346 147.493 294.85 148.726 295.858 150.304C296.866 151.868 297.369 153.671 297.369 155.713C297.369 157.304 297.051 158.703 296.415 159.909C295.778 161.102 294.903 162.083 293.79 162.852C292.689 163.608 291.43 164.145 290.011 164.463V164.861C291.563 164.927 293.014 165.365 294.366 166.173C295.732 166.982 296.839 168.116 297.688 169.574C298.536 171.019 298.96 172.742 298.96 174.744C298.96 176.905 298.423 178.834 297.349 180.531C296.289 182.215 294.718 183.547 292.636 184.528C290.555 185.509 287.99 186 284.94 186H267.54ZM276.151 178.96H283.17C285.57 178.96 287.32 178.503 288.42 177.588C289.521 176.66 290.071 175.427 290.071 173.889C290.071 172.762 289.799 171.768 289.256 170.906C288.712 170.045 287.937 169.368 286.929 168.878C285.935 168.387 284.748 168.142 283.369 168.142H276.151V178.96ZM276.151 162.315H282.534C283.714 162.315 284.761 162.11 285.676 161.699C286.604 161.275 287.333 160.678 287.864 159.909C288.407 159.14 288.679 158.219 288.679 157.145C288.679 155.673 288.155 154.487 287.108 153.585C286.074 152.684 284.602 152.233 282.693 152.233H276.151V162.315Z" fill="#090940"/>
</svg>
